/* XPM */
static char *a4a24ba8121f412fcea1bd9ea294dff1JIOJmAJDqjD80Tpi[] = {
/* columns rows colors chars-per-pixel */
"24 30 10 1 ",
"  c None",
". c #5F7A79",
"X c #90625D",
"o c #AA7959",
"O c #6E967C",
"+ c #B68962",
"@ c #C49A6C",
"# c #97BB8E",
"$ c #AED499",
"% c #C2E09A",
/* pixels */
"        .........       ",
"      ..#$$$$$$##.      ",
"    ..#$$$%%%$%%$#..    ",
"   .#$$$$$%%%$%%$$##.   ",
"  .#$%%%$%%%$$$$$$$$#.  ",
" .##$%%%%%%$$$%%%$$$##. ",
" .$$$$$%%$$$$$%%%%%%##. ",
".#$$$$$$$$$$$$$$$%%%$$#.",
".#$$$$$$$$$$$$$$$$$$$$#.",
".###$$$##$$$$$$###$$###.",
".###$$$##$$$$$$###$$##. ",
".###########$$#$$$####. ",
" .###$$$###############.",
" .#####################.",
".O####################O.",
".OOO#OO##OOO#####OOOOOO.",
".OOO#OO##OOO#####OOOOOO.",
".OOOOOOOO#####OOO###OO. ",
" .OO###OOOOOOOOOOOOOOO. ",
" .OOOOOOOOOOOOOOOOOOOO. ",
"  .OOOOOOOOOOOOOOOOOO.  ",
"   ..OOOOOOOOOOOOO...   ",
"     .............      ",
"        XooooooX        ",
"        X+oooo+X        ",
"        X++++++X        ",
"        X+@+@@@X        ",
"       X@@@@@@@@X       ",
"        @@@@@@@@        ",
"           @@           "
};
