/* XPM */
static char *d3489c38b76848aa9dbbb9927f81c3abZv6fPYctujbaT39q[] = {
/* columns rows colors chars-per-pixel */
"32 48 8 1 ",
"  c None",
". c #EAE178",
"X c #5C4E92",
"o c #766DAA",
"O c #E8B5AC",
"+ c #DDD5DE",
"@ c #F3D8C5",
"# c #F3F2C0",
/* pixels */
"                                ",
"                                ",
"                                ",
"                                ",
"                                ",
"                                ",
"                                ",
"                                ",
"      XXXXXX        XXXXXX      ",
"      XXXXXX        XXXXXX      ",
"    XX######XX    XX######XX    ",
"    XX######XX    XX######XX    ",
"    XXOOOO##XXXXXXXX##OOOOXX    ",
"    XXOOOO##XXXXXXXX##OOOOXX    ",
"    XXOOOO##++++++++##OOOOXX    ",
"    XXOOOO##++++++++##OOOOXX    ",
"    XX######++++++++######XX    ",
"    XX######++++++++######XX    ",
"    XX######++++++++######XX    ",
"    XX######++++++++######XX    ",
"  XXXX####################XXXX  ",
"  XXXX####################XXXX  ",
"    XX##XX############XX##XX    ",
"    XX##XX############XX##XX    ",
"  XXXX####################XXXX  ",
"  XXXX####################XXXX  ",
"    XX@@@@############@@@@XX    ",
"    XX@@@@############@@@@XX    ",
"      XXXXooooooooooooXXXX      ",
"      XXXXooooooooooooXXXX      ",
"    XX++##oooo..##oooo##++XX    ",
"    XX++##oooo..##oooo##++XX    ",
"    XX++######....######++XX    ",
"    XX++######....######++XX    ",
"      XXXX############XXXX      ",
"      XXXX############XXXX      ",
"        XX++++XXXX++++XX        ",
"        XX++++XXXX++++XX        ",
"          XXXX    XXXX          ",
"          XXXX    XXXX          ",
"                                ",
"                                ",
"                                ",
"                                ",
"                                ",
"                                ",
"                                ",
"                                "
};
