/* XPM */
static char *_37e5f41aa1141c4d5db9d4a2317c114sgOgeBZlPNki8KZT[] = {
/* columns rows colors chars-per-pixel */
"30 28 238 2 ",
"   c None",
".  c black",
"X  c #160A0A",
"o  c #261816",
"O  c #271817",
"+  c #271A17",
"@  c #2F221C",
"#  c #31221F",
"$  c #33241F",
"%  c #34241C",
"&  c #38201B",
"*  c #39241C",
"=  c #3B251D",
"-  c #2E2221",
";  c #2B2727",
":  c #3F2A22",
">  c #382A27",
",  c #3D2D25",
"<  c #322928",
"1  c #392A28",
"2  c #3A2B28",
"3  c #3B2C29",
"4  c #3D2F2D",
"5  c #533919",
"6  c #402B24",
"7  c #43312C",
"8  c #41332F",
"9  c #42322E",
"0  c #42342E",
"q  c #4B382C",
"w  c #4D392C",
"e  c #413333",
"r  c #473332",
"t  c #423530",
"y  c #403432",
"u  c #403532",
"i  c #423432",
"p  c #433432",
"a  c #443432",
"s  c #443532",
"d  c #453532",
"f  c #463532",
"g  c #453535",
"h  c #473535",
"j  c #443735",
"k  c #463634",
"l  c #493636",
"z  c #473835",
"x  c #453836",
"c  c #473836",
"v  c #483836",
"b  c #483937",
"n  c #4B3B36",
"m  c #4A3A37",
"M  c #403538",
"N  c #493A38",
"B  c #4A3A38",
"V  c #4B3B39",
"C  c #4D3939",
"Z  c #4E3939",
"A  c #493D3A",
"S  c #4C3C3A",
"D  c #4C3D3B",
"F  c #4E3D3A",
"G  c #4A3E3C",
"H  c #4A3F3E",
"J  c #4A3F3F",
"K  c #4D3F3E",
"L  c #533C3C",
"P  c #573F3F",
"I  c #7B530D",
"U  c #795712",
"Y  c #4F403E",
"T  c #5B4430",
"R  c #50413E",
"E  c #634924",
"W  c #62472B",
"Q  c #6E532D",
"!  c #745420",
"~  c #7F5D27",
"^  c #785C2D",
"/  c #694F34",
"(  c #504140",
")  c #514140",
"_  c #514241",
"`  c #514242",
"'  c #514342",
"]  c #524342",
"[  c #564242",
"{  c #524442",
"}  c #524443",
"|  c #544443",
" . c #534345",
".. c #514544",
"X. c #544545",
"o. c #564745",
"O. c #574745",
"+. c #544847",
"@. c #574847",
"#. c #594946",
"$. c #504948",
"%. c #594A4A",
"&. c #5B4C4B",
"*. c #5C4D4C",
"=. c #5C4E4C",
"-. c #5F4F4F",
";. c #5B4C51",
":. c #5F5452",
">. c #635150",
",. c #635352",
"<. c #625353",
"1. c #645252",
"2. c #675451",
"3. c #665453",
"4. c #655454",
"5. c #665454",
"6. c #675454",
"7. c #675656",
"8. c #675756",
"9. c #685656",
"0. c #695756",
"q. c #695757",
"w. c #6E5B53",
"e. c #695859",
"r. c #695959",
"t. c #6B5B59",
"y. c #6C5B5B",
"u. c #6E5A5A",
"i. c #6E5C5B",
"p. c #6B5C5C",
"a. c #6C5C5C",
"s. c #6F5C5C",
"d. c #6F5D5C",
"f. c #705C5C",
"g. c #705D5C",
"h. c #705D5D",
"j. c #715D5D",
"k. c #715F5C",
"l. c #715E5D",
"z. c #725E5D",
"x. c #725F5F",
"c. c #745F5F",
"v. c #7A6344",
"b. c #776148",
"n. c #75604E",
"m. c #746254",
"M. c #71605F",
"N. c #726060",
"B. c #736060",
"V. c #726161",
"C. c #736362",
"Z. c #746262",
"A. c #756262",
"S. c #746363",
"D. c #756363",
"F. c #776363",
"G. c #756463",
"H. c #776464",
"J. c #776666",
"K. c #786464",
"L. c #786564",
"P. c #786465",
"I. c #786565",
"U. c #786665",
"Y. c #786566",
"T. c #796666",
"R. c #796667",
"E. c #7A6666",
"W. c #7B6666",
"Q. c #7B6867",
"!. c #7A6768",
"~. c #7B6869",
"^. c #7B6969",
"/. c #7F6C6B",
"(. c #7E6C6C",
"). c #7F6C6D",
"_. c #966603",
"`. c #A87706",
"'. c #B07D07",
"]. c #866B36",
"[. c #8C6E31",
"{. c #826847",
"}. c #8E7754",
"|. c #816F60",
" X c #806D6D",
".X c #826F6F",
"XX c #846E6E",
"oX c #827171",
"OX c #847171",
"+X c #857373",
"@X c #867272",
"#X c #867373",
"$X c #867473",
"%X c #857474",
"&X c #877475",
"*X c #877575",
"=X c #887574",
"-X c #897676",
";X c #897777",
":X c #8A7777",
">X c #8A7878",
",X c #8B7979",
"<X c #8C7878",
"1X c #8D7A7A",
"2X c #8F7B7B",
"3X c #8F7D7D",
"4X c #907C7C",
"5X c #917E7E",
"6X c #927F7F",
"7X c #937F7F",
"8X c #B98718",
"9X c #B8881C",
"0X c #B0852F",
"qX c #E4AD35",
"wX c #A98A51",
"eX c #AC8E52",
"rX c #938080",
"tX c #938181",
"yX c #958282",
"uX c #968282",
"iX c #978383",
"pX c #958385",
"aX c #978484",
"sX c #978585",
"dX c #988383",
"fX c #988585",
"gX c #998585",
"hX c #998686",
"jX c #9A8686",
"kX c #9B8888",
"lX c #9C8888",
"zX c #9C8989",
"xX c #9D8989",
"cX c #9D8A8A",
"vX c #9E8A8A",
"bX c #9E8B8B",
"nX c #9F8C8C",
"mX c #A08D8D",
/* pixels */
"        . . . . . . . . . . . . . . . . . . . . . .         ",
"        . J :.+.C r o L C P l k k k k - < e [ ; $..         ",
"        . ) p &.r.#.% o.| +.} ) ) ) ) 3 ) d.I.o 2 .         ",
"        . o x k b ) %.K -.-.) ,.,.-.o.) x b d # B .         ",
"        . * 1.D l.2XfXC.;XiXZ.%XfX7X+XC.l.Q.G.4 8..         ",
"        . 7 M.} ;XnXzXZ.;XzXJ.oXzXdXaXl.I.zXfXd 2..         ",
"        . k C.} ;XnXrXr.;XzXJ.oXzXnXaXl.I.mXfXd 2..         ",
"        . : d.} ;XmX7XJ.zXmX;X XzXnXaXl.2XnXaXd 2..         ",
"        . 6 y.} ;XmX,XI.zXzX+X;.rXnXaXl.2XnXaXd 2..         ",
"        . * 8.} ;XmX%XZ.zX3X|.}.l.zXkXI.2XnXaXd 2..         ",
"        . * 8.} ;XmX%X^.iX-.^ qX, w.pX(.,XnXaXd 2..         ",
"        . * 8.} ;XzX(.d.m.wX! I 5 8Xn.I.I.nX7Xp 2..         ",
"        . * 8.} ;XfXZ.q.[.0Xq M w _.~ q.I.nX7X7 2..         ",
"        . * 8.} ;XfXI.^.E 9X{. .U './ q.I.nX2Xp 8..         ",
"        . * 8.} ;XfXI.+Xp.Q eX].`.T Z.l.I.nX;Xp 8..         ",
"        . & 8.} +XiXI.^.2X2.b.v.W q.XXc.!.fX%Xp ,..         ",
"        . X 2 $ 0 b d d D B x x b B D 7 b R D @ > .         ",
"        . q.o.r./. Xl.y.i.i.I.$XC.i.i.y.i.l.l.) Y .         ",
"        . J p A ..............................J p .         ",
"        . . . . . . . . . . . . . . . . . . . . . .         ",
"                                                            ",
"                                                            ",
"                                                            ",
"                                                            ",
"                                                            ",
"                                                            ",
"                                                            ",
"                                                            "
};
