/* XPM */
static char *_c4d3336ef354037d2e17c84945fc5d99I7mp3a46e06AO1o[] = {
/* columns rows colors chars-per-pixel */
"46 80 146 2 ",
"   c None",
".  c #476172",
"X  c #4E6874",
"o  c #536D76",
"O  c #577277",
"+  c #597377",
"@  c #5C7679",
"#  c #5E7A7A",
"$  c #647677",
"%  c #677877",
"&  c #687876",
"*  c #607779",
"=  c #627D7A",
"-  c #84535C",
";  c #8C5C5C",
":  c #93635F",
">  c #A3745C",
",  c #A5795C",
"<  c #AD7A58",
"1  c #B17E59",
"2  c #886261",
"3  c #936661",
"4  c #9D7262",
"5  c #A27563",
"6  c #AB7B63",
"7  c #64827C",
"8  c #6A877D",
"9  c #658D7C",
"0  c #6B8D7D",
"q  c #6C947C",
"w  c #6F987C",
"e  c #71967E",
"r  c #729A7D",
"t  c #B4835D",
"y  c #B78A62",
"u  c #BB8E64",
"i  c #B5876A",
"p  c #B68A6A",
"a  c #BE9267",
"s  c #BC926C",
"d  c #C2976E",
"f  c #C59B6C",
"g  c #C99E6E",
"h  c #C69C70",
"j  c #CBA070",
"k  c #D1A473",
"l  c #688580",
"z  c #6C8C84",
"x  c #6C8B88",
"c  c #708F8A",
"v  c #6E9382",
"b  c #729684",
"n  c #7C9E83",
"m  c #75978A",
"M  c #7C9C8A",
"N  c #7EA482",
"B  c #81A584",
"V  c #85AA86",
"C  c #88AD87",
"Z  c #83A38B",
"A  c #87A98A",
"S  c #8BAE8B",
"D  c #8EB28A",
"F  c #92B58C",
"G  c #96BA8D",
"H  c #99BD8F",
"J  c #83A591",
"K  c #89AC92",
"L  c #92B591",
"P  c #9BBF90",
"I  c #9DC191",
"U  c #9CC090",
"Y  c #9DC291",
"T  c #9EC291",
"R  c #9FC391",
"E  c #9DC292",
"W  c #9FC392",
"Q  c #9FC592",
"!  c #9BC092",
"~  c #A0C592",
"^  c #A0C492",
"/  c #A1C693",
"(  c #A4C994",
")  c #A4CA94",
"_  c #A5CA95",
"`  c #A5CB95",
"'  c #A6CB95",
"]  c #A7CC95",
"[  c #A6CC95",
"{  c #A7CD96",
"}  c #A8CD96",
"|  c #A9CE96",
" . c #A9CF97",
".. c #A8CE97",
"X. c #ABD097",
"o. c #AED397",
"O. c #AAD198",
"+. c #ABD299",
"@. c #ACD198",
"#. c #ACD298",
"$. c #ADD298",
"%. c #ACD399",
"&. c #ADD399",
"*. c #ADD398",
"=. c #ADD499",
"-. c #AED499",
";. c #AFD599",
":. c #AFD499",
">. c #AFD59A",
",. c #AED59A",
"<. c #AFD69A",
"1. c #B0D599",
"2. c #B1D699",
"3. c #B2D699",
"4. c #B2D799",
"5. c #B0D69A",
"6. c #B1D79A",
"7. c #B0D79A",
"8. c #B4D798",
"9. c #B1D89B",
"0. c #B2D99B",
"q. c #B6D999",
"w. c #B7D999",
"e. c #B5D99A",
"r. c #B6DA9A",
"t. c #B7DB9B",
"y. c #B3DA9C",
"u. c #B9DB99",
"i. c #BADB9A",
"p. c #B8DD9B",
"a. c #BBDC9A",
"s. c #BCDC9A",
"d. c #BDDD9A",
"f. c #BDDE9A",
"g. c #BEDE9A",
"h. c #BFDE9A",
"j. c #BBDF9C",
"k. c #C0DF9A",
"l. c #C1DF9A",
"z. c #C1E09A",
"x. c #C2E09A",
"c. c #C3E19A",
"v. c #C4E19A",
"b. c #C4E29A",
"n. c #C5E29A",
"m. c #C6E29A",
/* pixels */
"                            # # + + O O O O O O O O # # + +                                 ",
"                            # # + + O O O O O O O O # # + +                                 ",
"                o o . . 7 7 A A G G G G G G H H H H F F n n o o o o                         ",
"                o o . . 7 7 A A G G G G G G H H P H F F n n o o o o                         ",
"                e e K K L L _ _ q.q.j.j.a.a.0.0.y.y.&.&.I I K K K K 0 0                     ",
"                e e K K L L _ _ q.q.j.j.a.a.0.0.y.y.&.&.I I K K K K 0 0                     ",
"            x x F F X.X.0.0.1.1.d.d.m.m.d.d.,.,.,.,.1.1.1.1.0.0._ _ S S + +                 ",
"            x x F F X.X.0.0.1.1.d.d.m.m.d.d.,.,.,.,.1.1.1.1.0.0._ _ S S + +                 ",
"            7 7 D D _ _ ,.,.,.,.d.d.m.m.d.d.,.,.d.d.x.x.d.d.,.,.Q Q Z Z o o                 ",
"            7 7 D D _ _ ,.,.,.,.d.d.m.m.d.d.,.,.d.d.x.x.d.d.,.,.Q Q Z Z o o                 ",
"        0 0 S S / / 8.8.d.d.a.a.x.x.d.d.1.1.,.,.d.d.m.m.x.x.d.d.o.o.! ! B B 7 7             ",
"        0 0 S S / / 8.8.d.d.a.a.x.x.d.d.1.1.,.,.d.d.m.m.x.x.d.d.o.o.! ! B B 7 7             ",
"    o o J J I I +.+.d.d.m.m.m.m.m.m.q.q.+.+.&.&.q.q.d.d.m.m.m.m.q.q. . .G G c c             ",
"    o o J J I I +.+.d.d.m.m.m.m.m.m.q.q.+.+.&.&.q.q.d.d.m.m.m.m.q.q. . .G G c c             ",
"    o o M M I I +.+.i.i.x.x.k.k.x.x.q.q.&.&.1.1.,.,.q.q.x.x.k.k.q.q._ _ D D l l             ",
"    o o M M I I +.+.i.i.x.x.k.k.x.x.q.q.&.&.1.1.,.,.q.q.x.x.k.k.q.q._ _ D D l l             ",
"    X X A A 1.1.,.,.,.,.1.1.1.1.1.1.,.,.1.1.x.x.x.x.i.i.,.,.1.1.1.1.[ [ D D l l             ",
"    X X A A 1.1.,.,.,.,.1.1.1.1.1.1.,.,.1.1.x.x.x.x.i.i.,.,.1.1.1.1.[ [ D D l l             ",
"    o o Z Z _ _ &.&.,.,.&.&.&.&.&.&.&.&.1.1.q.q.q.q.1.1.&.&.&.&.,.,.[ [ D D l l             ",
"    o o Z Z _ _ &.&.,.,.&.&.&.&.&.&.&.&.1.1.q.q.q.q.1.1.&.&.&.&.,.,.[ [ D D l l             ",
"    o o M M H H &.&.,.,.,.,.,.,.,.,.,.,.,.,.&.&.&.&.,.,.,.,.,.,.1.1.[ [ D D l l             ",
"    o o M M H H &.&.,.,.,.,.,.,.,.,.,.,.,.,.&.&.&.&.,.,.,.,.,.,.1.1.[ [ D D l l             ",
"    o o M M H H  . .,.,.,.,.,.,.&.&.&.&.&.&.,.,.,.,.&.&.&.&.,.,.,.,._ _ F F l l             ",
"    o o M M H H  . .,.,.,.,.,.,.&.&.&.&.&.&.,.,.,.,.&.&.&.&.,.,.,.,._ _ F F l l             ",
"    o o J J I I H H [ [ 1.1.&.&.P I G G I I ,.,.0.0._ _ I I ,.,./ / H H F F l l             ",
"    o o J J I I H H [ [ 1.1.&.&.I I G G I I ,.,.0.0._ _ I I ,.,./ / H H F F l l             ",
"        8 8 n n F F I I _ _ 1.1. . .[ [ _ _ / / I I H H G G Q Q H H H H F F l l             ",
"        8 8 n n F F I I _ _ 1.1. . .[ [ _ _ / / I I H H G G Q Q H H H H F F l l             ",
"            # # F F G G H H _ _  . . . ._ _ G G I I / / I I G G G G P P G G z z             ",
"            # # F F G G H H _ _  . . . ._ _ G G I I / / I I G G G G P P G G z z             ",
"            z z F F H H H H H H G G G G G G G G  . .1.1. . .H H G G H H S S = =             ",
"            z z F F H H H H H H G G G G G G G G  . .1.1. . .H H G G H H S S = =             ",
"    o o b b G G G G _ _ ,.,.&.&.P P G G G G G G H H H H H H G G H H S S # #                 ",
"    o o b b G G G G _ _ ,.,.&.&.P P G G G G G G H H H H H H G G H H S S # #                 ",
"    + + m m V V G G I I / / / / H H G G G G G G G G G G G G G G H H C C 7 7 = =             ",
"    + + m m V V G G I I / / / / H H G G G G G G G G G G G G G G H H C C 7 7 = =             ",
"    @ @ z z w w F F H H G G G G G G H H H H H H G G G G G G H H P P D D q q x x             ",
"    @ @ z z w w F F H H G G G G G G H H H H H H G G G G G G H H P P C D q q x x             ",
"    @ @ z z e e D D G G G G G G G G G G F F G G G G H H G G G G G G V V q q 7 7             ",
"    @ @ z z e e D D G G G G G G G G G G F F G G G G H H G G F G G G V V q q 7 7             ",
"    @ @ x x w w e e q q N N H H H H V V w w e e F F I I F F e e w w w w q q l l             ",
"    @ @ x x w w e e q q N N H H H H V V w w e e F F I I F F e e w w e e q q l l             ",
"    @ @ z z e e C C D D C C N N H H V V 9 9 q q r r N N V B D D D D B B q q 7 7             ",
"    @ @ z z e e C C D D C C N N H H V V 9 9 q q r r N N V V D D D D B B q q 7 7             ",
"    @ @ v v e e C C F F V V q q V V N N e e B B N N e e e e D D F F V V q q l l             ",
"    @ @ v v e e C C F F V V q q V V N N e e N B N N e e e e D D F F V V q q l l             ",
"    @ @ 8 8 w w q q q q q q w w q q q q N r G G H H V V q q q q q q w w q q # #             ",
"    @ @ 7 8 w w q q q q q q w w q q q q N r G G H H V V q q q q q q w w q q # #             ",
"            7 7 w w w w w w w w w w w w w w e e e e e e w w w w w w v v # #                 ",
"            7 7 w w w w w w w w w w w w w w e e e e e e w w w w w w v v # #                 ",
"            x x w w w w w w w w w w w w w w q q q q w w w w w w e e b b @ @                 ",
"            x x w w w w w w w w w w w w w w q q q q w w w w w e e e b b @ @                 ",
"            # # 9 9 v v q q 9 9 9 9 9 9 9 9 9 9 9 9 9 9 9 9 v v b b 8 8 @ @                 ",
"            # # 9 9 v v q q 9 9 9 9 9 9 9 9 9 9 9 9 9 9 9 9 v v b b 8 8 @ @                 ",
"                @ @ # # * * $ $ % % & & & & & & & & % % $ $ # # # #                         ",
"                @ @ # # * * $ $ % % & & & & & & & & % % $ $ # # # #                         ",
"                            3 3 > > , , , , > > , , 5 5 2 2                                 ",
"                            3 3 > > , , , , > > , , 5 5 2 2                                 ",
"                            : : u u t t < < u u 1 1 > > ; ;                                 ",
"                            : : u u t t < < u u 1 1 > > ; ;                                 ",
"                            3 3 d d a a y y f f u u 6 6 ; ;                                 ",
"                            3 3 d d a a y y f f u u 6 6 ; ;                                 ",
"                            3 3 s s f f f f f f g g p p ; ;                                 ",
"                            3 3 s s f f f f f f g g p p ; ;                                 ",
"                            : : s s f f f f f f g g i i - -                                 ",
"                            : : s s f f f f f f g g i i - -                                 ",
"                        4 4 d d f f f f f f f f f f g g p p : :                             ",
"                        4 4 d d f f f f f f f f f f g g p p : :                             ",
"                        4 4 h h f f g g f f j j k k f f s s 3 3                             ",
"                        4 4 h h f f g g f f j j k k f f s s 2 3                             ",
"                                d d g g f f f f f f s s                                     ",
"                                d d g g f f f f f f s s                                     ",
"                                    d d f f                                                 ",
"                                    d d f f                                                 ",
"                                                                                            ",
"                                                                                            ",
"                                                                                            ",
"                                                                                            ",
"                                                                                            ",
"                                                                                            "
};
