/* XPM */
static char *f3679aeb85de4a87ff3dde5673f44e1cYLCZDOW6xkDiasGb[] = {
/* columns rows colors chars-per-pixel */
"17 30 9 1 ",
"  c None",
". c #5F7A79",
"X c #90625D",
"o c #AA7959",
"O c #6E967C",
"+ c #C49A6C",
"@ c #97BB8E",
"# c #AED499",
"$ c #C2E09A",
/* pixels */
"     ......      ",
"   ..@####@..    ",
"  .@##$$####@.   ",
"  .@##$$#$$#@.   ",
" .@#$$$##$$$#@.  ",
" .@#$$$###$$#@.  ",
" .######$$###@.  ",
" .@##########@.  ",
" .@##########@.  ",
" .@@##@@##@#@@.  ",
"  .@@###@@@@@@.  ",
"  .@@@@@@##@@@.  ",
" .@@##@@@@@@@.   ",
" .O@@@@@@@@@@O.  ",
" .O@@@@@@@@@@O.  ",
" .OOO@@OO@@OOO.  ",
" .O@@O@OOOO@@O.  ",
" .OOOOOO@@OOOO.  ",
"  .OOOOOOOOOO.   ",
"  .OOOOOOOOOO.   ",
"   ..........    ",
"     XooooX      ",
"     X+o+oX      ",
"     X++++X      ",
"     X++++X      ",
"    X++++++X     ",
"      ++++       ",
"       +         ",
"                 ",
"                 "
};
